<?xml version="1.0" standalone="yes"?>
<svg xmlns="http://www.w3.org/2000/svg" version="1.1" width="256" height="256">
  <rect x="0" y="0" width="256" height="256" style="fill:#ffffff;shape-rendering:crispEdges;"/>
  <rect x="15.515151515151516" y="15.515151515151516" width="7.757575757575758" height="7.757575757575758" style="fill:#0f172a;shape-rendering:crispEdges;"/>
  <rect x="23.272727272727273" y="15.515151515151516" width="7.757575757575758" height="7.757575757575758" style="fill:#0f172a;shape-rendering:crispEdges;"/>
  <rect x="31.03030303030303" y="15.515151515151516" width="7.757575757575758" height="7.757575757575758" style="fill:#0f172a;shape-rendering:crispEdges;"/>
  <rect x="38.78787878787879" y="15.515151515151516" width="7.757575757575758" height="7.757575757575758" style="fill:#0f172a;shape-rendering:crispEdges;"/>
  <rect x="46.54545454545455" y="15.515151515151516" width="7.757575757575758" height="7.757575757575758" style="fill:#0f172a;shape-rendering:crispEdges;"/>
  <rect x="54.303030303030305" y="15.515151515151516" width="7.757575757575758" height="7.757575757575758" style="fill:#0f172a;shape-rendering:crispEdges;"/>
  <rect x="62.06060606060606" y="15.515151515151516" width="7.757575757575758" height="7.757575757575758" style="fill:#0f172a;shape-rendering:crispEdges;"/>
  <rect x="77.57575757575758" y="15.515151515151516" width="7.757575757575758" height="7.757575757575758" style="fill:#0f172a;shape-rendering:crispEdges;"/>
  <rect x="93.0909090909091" y="15.515151515151516" width="7.757575757575758" height="7.757575757575758" style="fill:#0f172a;shape-rendering:crispEdges;"/>
  <rect x="100.84848484848486" y="15.515151515151516" width="7.757575757575758" height="7.757575757575758" style="fill:#0f172a;shape-rendering:crispEdges;"/>
  <rect x="155.15151515151513" y="15.515151515151516" width="7.757575757575758" height="7.757575757575758" style="fill:#0f172a;shape-rendering:crispEdges;"/>
  <rect x="186.1818181818182" y="15.515151515151516" width="7.757575757575758" height="7.757575757575758" style="fill:#0f172a;shape-rendering:crispEdges;"/>
  <rect x="193.93939393939394" y="15.515151515151516" width="7.757575757575758" height="7.757575757575758" style="fill:#0f172a;shape-rendering:crispEdges;"/>
  <rect x="201.6969696969697" y="15.515151515151516" width="7.757575757575758" height="7.757575757575758" style="fill:#0f172a;shape-rendering:crispEdges;"/>
  <rect x="209.45454545454544" y="15.515151515151516" width="7.757575757575758" height="7.757575757575758" style="fill:#0f172a;shape-rendering:crispEdges;"/>
  <rect x="217.2121212121212" y="15.515151515151516" width="7.757575757575758" height="7.757575757575758" style="fill:#0f172a;shape-rendering:crispEdges;"/>
  <rect x="224.969696969697" y="15.515151515151516" width="7.757575757575758" height="7.757575757575758" style="fill:#0f172a;shape-rendering:crispEdges;"/>
  <rect x="232.72727272727275" y="15.515151515151516" width="7.757575757575758" height="7.757575757575758" style="fill:#0f172a;shape-rendering:crispEdges;"/>
  <rect x="15.515151515151516" y="23.272727272727273" width="7.757575757575758" height="7.757575757575758" style="fill:#0f172a;shape-rendering:crispEdges;"/>
  <rect x="62.06060606060606" y="23.272727272727273" width="7.757575757575758" height="7.757575757575758" style="fill:#0f172a;shape-rendering:crispEdges;"/>
  <rect x="85.33333333333333" y="23.272727272727273" width="7.757575757575758" height="7.757575757575758" style="fill:#0f172a;shape-rendering:crispEdges;"/>
  <rect x="116.36363636363636" y="23.272727272727273" width="7.757575757575758" height="7.757575757575758" style="fill:#0f172a;shape-rendering:crispEdges;"/>
  <rect x="131.87878787878788" y="23.272727272727273" width="7.757575757575758" height="7.757575757575758" style="fill:#0f172a;shape-rendering:crispEdges;"/>
  <rect x="170.66666666666669" y="23.272727272727273" width="7.757575757575758" height="7.757575757575758" style="fill:#0f172a;shape-rendering:crispEdges;"/>
  <rect x="186.1818181818182" y="23.272727272727273" width="7.757575757575758" height="7.757575757575758" style="fill:#0f172a;shape-rendering:crispEdges;"/>
  <rect x="232.72727272727275" y="23.272727272727273" width="7.757575757575758" height="7.757575757575758" style="fill:#0f172a;shape-rendering:crispEdges;"/>
  <rect x="15.515151515151516" y="31.03030303030303" width="7.757575757575758" height="7.757575757575758" style="fill:#0f172a;shape-rendering:crispEdges;"/>
  <rect x="31.03030303030303" y="31.03030303030303" width="7.757575757575758" height="7.757575757575758" style="fill:#0f172a;shape-rendering:crispEdges;"/>
  <rect x="38.78787878787879" y="31.03030303030303" width="7.757575757575758" height="7.757575757575758" style="fill:#0f172a;shape-rendering:crispEdges;"/>
  <rect x="46.54545454545455" y="31.03030303030303" width="7.757575757575758" height="7.757575757575758" style="fill:#0f172a;shape-rendering:crispEdges;"/>
  <rect x="62.06060606060606" y="31.03030303030303" width="7.757575757575758" height="7.757575757575758" style="fill:#0f172a;shape-rendering:crispEdges;"/>
  <rect x="77.57575757575758" y="31.03030303030303" width="7.757575757575758" height="7.757575757575758" style="fill:#0f172a;shape-rendering:crispEdges;"/>
  <rect x="85.33333333333333" y="31.03030303030303" width="7.757575757575758" height="7.757575757575758" style="fill:#0f172a;shape-rendering:crispEdges;"/>
  <rect x="147.39393939393938" y="31.03030303030303" width="7.757575757575758" height="7.757575757575758" style="fill:#0f172a;shape-rendering:crispEdges;"/>
  <rect x="162.90909090909093" y="31.03030303030303" width="7.757575757575758" height="7.757575757575758" style="fill:#0f172a;shape-rendering:crispEdges;"/>
  <rect x="186.1818181818182" y="31.03030303030303" width="7.757575757575758" height="7.757575757575758" style="fill:#0f172a;shape-rendering:crispEdges;"/>
  <rect x="201.6969696969697" y="31.03030303030303" width="7.757575757575758" height="7.757575757575758" style="fill:#0f172a;shape-rendering:crispEdges;"/>
  <rect x="209.45454545454544" y="31.03030303030303" width="7.757575757575758" height="7.757575757575758" style="fill:#0f172a;shape-rendering:crispEdges;"/>
  <rect x="217.2121212121212" y="31.03030303030303" width="7.757575757575758" height="7.757575757575758" style="fill:#0f172a;shape-rendering:crispEdges;"/>
  <rect x="232.72727272727275" y="31.03030303030303" width="7.757575757575758" height="7.757575757575758" style="fill:#0f172a;shape-rendering:crispEdges;"/>
  <rect x="15.515151515151516" y="38.78787878787879" width="7.757575757575758" height="7.757575757575758" style="fill:#0f172a;shape-rendering:crispEdges;"/>
  <rect x="31.03030303030303" y="38.78787878787879" width="7.757575757575758" height="7.757575757575758" style="fill:#0f172a;shape-rendering:crispEdges;"/>
  <rect x="38.78787878787879" y="38.78787878787879" width="7.757575757575758" height="7.757575757575758" style="fill:#0f172a;shape-rendering:crispEdges;"/>
  <rect x="46.54545454545455" y="38.78787878787879" width="7.757575757575758" height="7.757575757575758" style="fill:#0f172a;shape-rendering:crispEdges;"/>
  <rect x="62.06060606060606" y="38.78787878787879" width="7.757575757575758" height="7.757575757575758" style="fill:#0f172a;shape-rendering:crispEdges;"/>
  <rect x="77.57575757575758" y="38.78787878787879" width="7.757575757575758" height="7.757575757575758" style="fill:#0f172a;shape-rendering:crispEdges;"/>
  <rect x="93.0909090909091" y="38.78787878787879" width="7.757575757575758" height="7.757575757575758" style="fill:#0f172a;shape-rendering:crispEdges;"/>
  <rect x="100.84848484848486" y="38.78787878787879" width="7.757575757575758" height="7.757575757575758" style="fill:#0f172a;shape-rendering:crispEdges;"/>
  <rect x="108.60606060606061" y="38.78787878787879" width="7.757575757575758" height="7.757575757575758" style="fill:#0f172a;shape-rendering:crispEdges;"/>
  <rect x="116.36363636363636" y="38.78787878787879" width="7.757575757575758" height="7.757575757575758" style="fill:#0f172a;shape-rendering:crispEdges;"/>
  <rect x="124.12121212121212" y="38.78787878787879" width="7.757575757575758" height="7.757575757575758" style="fill:#0f172a;shape-rendering:crispEdges;"/>
  <rect x="131.87878787878788" y="38.78787878787879" width="7.757575757575758" height="7.757575757575758" style="fill:#0f172a;shape-rendering:crispEdges;"/>
  <rect x="147.39393939393938" y="38.78787878787879" width="7.757575757575758" height="7.757575757575758" style="fill:#0f172a;shape-rendering:crispEdges;"/>
  <rect x="155.15151515151513" y="38.78787878787879" width="7.757575757575758" height="7.757575757575758" style="fill:#0f172a;shape-rendering:crispEdges;"/>
  <rect x="162.90909090909093" y="38.78787878787879" width="7.757575757575758" height="7.757575757575758" style="fill:#0f172a;shape-rendering:crispEdges;"/>
  <rect x="186.1818181818182" y="38.78787878787879" width="7.757575757575758" height="7.757575757575758" style="fill:#0f172a;shape-rendering:crispEdges;"/>
  <rect x="201.6969696969697" y="38.78787878787879" width="7.757575757575758" height="7.757575757575758" style="fill:#0f172a;shape-rendering:crispEdges;"/>
  <rect x="209.45454545454544" y="38.78787878787879" width="7.757575757575758" height="7.757575757575758" style="fill:#0f172a;shape-rendering:crispEdges;"/>
  <rect x="217.2121212121212" y="38.78787878787879" width="7.757575757575758" height="7.757575757575758" style="fill:#0f172a;shape-rendering:crispEdges;"/>
  <rect x="232.72727272727275" y="38.78787878787879" width="7.757575757575758" height="7.757575757575758" style="fill:#0f172a;shape-rendering:crispEdges;"/>
  <rect x="15.515151515151516" y="46.54545454545455" width="7.757575757575758" height="7.757575757575758" style="fill:#0f172a;shape-rendering:crispEdges;"/>
  <rect x="31.03030303030303" y="46.54545454545455" width="7.757575757575758" height="7.757575757575758" style="fill:#0f172a;shape-rendering:crispEdges;"/>
  <rect x="38.78787878787879" y="46.54545454545455" width="7.757575757575758" height="7.757575757575758" style="fill:#0f172a;shape-rendering:crispEdges;"/>
  <rect x="46.54545454545455" y="46.54545454545455" width="7.757575757575758" height="7.757575757575758" style="fill:#0f172a;shape-rendering:crispEdges;"/>
  <rect x="62.06060606060606" y="46.54545454545455" width="7.757575757575758" height="7.757575757575758" style="fill:#0f172a;shape-rendering:crispEdges;"/>
  <rect x="93.0909090909091" y="46.54545454545455" width="7.757575757575758" height="7.757575757575758" style="fill:#0f172a;shape-rendering:crispEdges;"/>
  <rect x="116.36363636363636" y="46.54545454545455" width="7.757575757575758" height="7.757575757575758" style="fill:#0f172a;shape-rendering:crispEdges;"/>
  <rect x="139.63636363636363" y="46.54545454545455" width="7.757575757575758" height="7.757575757575758" style="fill:#0f172a;shape-rendering:crispEdges;"/>
  <rect x="155.15151515151513" y="46.54545454545455" width="7.757575757575758" height="7.757575757575758" style="fill:#0f172a;shape-rendering:crispEdges;"/>
  <rect x="170.66666666666669" y="46.54545454545455" width="7.757575757575758" height="7.757575757575758" style="fill:#0f172a;shape-rendering:crispEdges;"/>
  <rect x="186.1818181818182" y="46.54545454545455" width="7.757575757575758" height="7.757575757575758" style="fill:#0f172a;shape-rendering:crispEdges;"/>
  <rect x="201.6969696969697" y="46.54545454545455" width="7.757575757575758" height="7.757575757575758" style="fill:#0f172a;shape-rendering:crispEdges;"/>
  <rect x="209.45454545454544" y="46.54545454545455" width="7.757575757575758" height="7.757575757575758" style="fill:#0f172a;shape-rendering:crispEdges;"/>
  <rect x="217.2121212121212" y="46.54545454545455" width="7.757575757575758" height="7.757575757575758" style="fill:#0f172a;shape-rendering:crispEdges;"/>
  <rect x="232.72727272727275" y="46.54545454545455" width="7.757575757575758" height="7.757575757575758" style="fill:#0f172a;shape-rendering:crispEdges;"/>
  <rect x="15.515151515151516" y="54.303030303030305" width="7.757575757575758" height="7.757575757575758" style="fill:#0f172a;shape-rendering:crispEdges;"/>
  <rect x="62.06060606060606" y="54.303030303030305" width="7.757575757575758" height="7.757575757575758" style="fill:#0f172a;shape-rendering:crispEdges;"/>
  <rect x="77.57575757575758" y="54.303030303030305" width="7.757575757575758" height="7.757575757575758" style="fill:#0f172a;shape-rendering:crispEdges;"/>
  <rect x="100.84848484848486" y="54.303030303030305" width="7.757575757575758" height="7.757575757575758" style="fill:#0f172a;shape-rendering:crispEdges;"/>
  <rect x="108.60606060606061" y="54.303030303030305" width="7.757575757575758" height="7.757575757575758" style="fill:#0f172a;shape-rendering:crispEdges;"/>
  <rect x="116.36363636363636" y="54.303030303030305" width="7.757575757575758" height="7.757575757575758" style="fill:#0f172a;shape-rendering:crispEdges;"/>
  <rect x="124.12121212121212" y="54.303030303030305" width="7.757575757575758" height="7.757575757575758" style="fill:#0f172a;shape-rendering:crispEdges;"/>
  <rect x="131.87878787878788" y="54.303030303030305" width="7.757575757575758" height="7.757575757575758" style="fill:#0f172a;shape-rendering:crispEdges;"/>
  <rect x="139.63636363636363" y="54.303030303030305" width="7.757575757575758" height="7.757575757575758" style="fill:#0f172a;shape-rendering:crispEdges;"/>
  <rect x="170.66666666666669" y="54.303030303030305" width="7.757575757575758" height="7.757575757575758" style="fill:#0f172a;shape-rendering:crispEdges;"/>
  <rect x="186.1818181818182" y="54.303030303030305" width="7.757575757575758" height="7.757575757575758" style="fill:#0f172a;shape-rendering:crispEdges;"/>
  <rect x="232.72727272727275" y="54.303030303030305" width="7.757575757575758" height="7.757575757575758" style="fill:#0f172a;shape-rendering:crispEdges;"/>
  <rect x="15.515151515151516" y="62.06060606060606" width="7.757575757575758" height="7.757575757575758" style="fill:#0f172a;shape-rendering:crispEdges;"/>
  <rect x="23.272727272727273" y="62.06060606060606" width="7.757575757575758" height="7.757575757575758" style="fill:#0f172a;shape-rendering:crispEdges;"/>
  <rect x="31.03030303030303" y="62.06060606060606" width="7.757575757575758" height="7.757575757575758" style="fill:#0f172a;shape-rendering:crispEdges;"/>
  <rect x="38.78787878787879" y="62.06060606060606" width="7.757575757575758" height="7.757575757575758" style="fill:#0f172a;shape-rendering:crispEdges;"/>
  <rect x="46.54545454545455" y="62.06060606060606" width="7.757575757575758" height="7.757575757575758" style="fill:#0f172a;shape-rendering:crispEdges;"/>
  <rect x="54.303030303030305" y="62.06060606060606" width="7.757575757575758" height="7.757575757575758" style="fill:#0f172a;shape-rendering:crispEdges;"/>
  <rect x="62.06060606060606" y="62.06060606060606" width="7.757575757575758" height="7.757575757575758" style="fill:#0f172a;shape-rendering:crispEdges;"/>
  <rect x="77.57575757575758" y="62.06060606060606" width="7.757575757575758" height="7.757575757575758" style="fill:#0f172a;shape-rendering:crispEdges;"/>
  <rect x="93.0909090909091" y="62.06060606060606" width="7.757575757575758" height="7.757575757575758" style="fill:#0f172a;shape-rendering:crispEdges;"/>
  <rect x="108.60606060606061" y="62.06060606060606" width="7.757575757575758" height="7.757575757575758" style="fill:#0f172a;shape-rendering:crispEdges;"/>
  <rect x="124.12121212121212" y="62.06060606060606" width="7.757575757575758" height="7.757575757575758" style="fill:#0f172a;shape-rendering:crispEdges;"/>
  <rect x="139.63636363636363" y="62.06060606060606" width="7.757575757575758" height="7.757575757575758" style="fill:#0f172a;shape-rendering:crispEdges;"/>
  <rect x="155.15151515151513" y="62.06060606060606" width="7.757575757575758" height="7.757575757575758" style="fill:#0f172a;shape-rendering:crispEdges;"/>
  <rect x="170.66666666666669" y="62.06060606060606" width="7.757575757575758" height="7.757575757575758" style="fill:#0f172a;shape-rendering:crispEdges;"/>
  <rect x="186.1818181818182" y="62.06060606060606" width="7.757575757575758" height="7.757575757575758" style="fill:#0f172a;shape-rendering:crispEdges;"/>
  <rect x="193.93939393939394" y="62.06060606060606" width="7.757575757575758" height="7.757575757575758" style="fill:#0f172a;shape-rendering:crispEdges;"/>
  <rect x="201.6969696969697" y="62.06060606060606" width="7.757575757575758" height="7.757575757575758" style="fill:#0f172a;shape-rendering:crispEdges;"/>
  <rect x="209.45454545454544" y="62.06060606060606" width="7.757575757575758" height="7.757575757575758" style="fill:#0f172a;shape-rendering:crispEdges;"/>
  <rect x="217.2121212121212" y="62.06060606060606" width="7.757575757575758" height="7.757575757575758" style="fill:#0f172a;shape-rendering:crispEdges;"/>
  <rect x="224.969696969697" y="62.06060606060606" width="7.757575757575758" height="7.757575757575758" style="fill:#0f172a;shape-rendering:crispEdges;"/>
  <rect x="232.72727272727275" y="62.06060606060606" width="7.757575757575758" height="7.757575757575758" style="fill:#0f172a;shape-rendering:crispEdges;"/>
  <rect x="77.57575757575758" y="69.81818181818181" width="7.757575757575758" height="7.757575757575758" style="fill:#0f172a;shape-rendering:crispEdges;"/>
  <rect x="85.33333333333333" y="69.81818181818181" width="7.757575757575758" height="7.757575757575758" style="fill:#0f172a;shape-rendering:crispEdges;"/>
  <rect x="131.87878787878788" y="69.81818181818181" width="7.757575757575758" height="7.757575757575758" style="fill:#0f172a;shape-rendering:crispEdges;"/>
  <rect x="147.39393939393938" y="69.81818181818181" width="7.757575757575758" height="7.757575757575758" style="fill:#0f172a;shape-rendering:crispEdges;"/>
  <rect x="162.90909090909093" y="69.81818181818181" width="7.757575757575758" height="7.757575757575758" style="fill:#0f172a;shape-rendering:crispEdges;"/>
  <rect x="15.515151515151516" y="77.57575757575758" width="7.757575757575758" height="7.757575757575758" style="fill:#0f172a;shape-rendering:crispEdges;"/>
  <rect x="23.272727272727273" y="77.57575757575758" width="7.757575757575758" height="7.757575757575758" style="fill:#0f172a;shape-rendering:crispEdges;"/>
  <rect x="38.78787878787879" y="77.57575757575758" width="7.757575757575758" height="7.757575757575758" style="fill:#0f172a;shape-rendering:crispEdges;"/>
  <rect x="62.06060606060606" y="77.57575757575758" width="7.757575757575758" height="7.757575757575758" style="fill:#0f172a;shape-rendering:crispEdges;"/>
  <rect x="69.81818181818181" y="77.57575757575758" width="7.757575757575758" height="7.757575757575758" style="fill:#0f172a;shape-rendering:crispEdges;"/>
  <rect x="100.84848484848486" y="77.57575757575758" width="7.757575757575758" height="7.757575757575758" style="fill:#0f172a;shape-rendering:crispEdges;"/>
  <rect x="178.42424242424244" y="77.57575757575758" width="7.757575757575758" height="7.757575757575758" style="fill:#0f172a;shape-rendering:crispEdges;"/>
  <rect x="186.1818181818182" y="77.57575757575758" width="7.757575757575758" height="7.757575757575758" style="fill:#0f172a;shape-rendering:crispEdges;"/>
  <rect x="193.93939393939394" y="77.57575757575758" width="7.757575757575758" height="7.757575757575758" style="fill:#0f172a;shape-rendering:crispEdges;"/>
  <rect x="209.45454545454544" y="77.57575757575758" width="7.757575757575758" height="7.757575757575758" style="fill:#0f172a;shape-rendering:crispEdges;"/>
  <rect x="217.2121212121212" y="77.57575757575758" width="7.757575757575758" height="7.757575757575758" style="fill:#0f172a;shape-rendering:crispEdges;"/>
  <rect x="232.72727272727275" y="77.57575757575758" width="7.757575757575758" height="7.757575757575758" style="fill:#0f172a;shape-rendering:crispEdges;"/>
  <rect x="15.515151515151516" y="85.33333333333333" width="7.757575757575758" height="7.757575757575758" style="fill:#0f172a;shape-rendering:crispEdges;"/>
  <rect x="23.272727272727273" y="85.33333333333333" width="7.757575757575758" height="7.757575757575758" style="fill:#0f172a;shape-rendering:crispEdges;"/>
  <rect x="31.03030303030303" y="85.33333333333333" width="7.757575757575758" height="7.757575757575758" style="fill:#0f172a;shape-rendering:crispEdges;"/>
  <rect x="38.78787878787879" y="85.33333333333333" width="7.757575757575758" height="7.757575757575758" style="fill:#0f172a;shape-rendering:crispEdges;"/>
  <rect x="46.54545454545455" y="85.33333333333333" width="7.757575757575758" height="7.757575757575758" style="fill:#0f172a;shape-rendering:crispEdges;"/>
  <rect x="54.303030303030305" y="85.33333333333333" width="7.757575757575758" height="7.757575757575758" style="fill:#0f172a;shape-rendering:crispEdges;"/>
  <rect x="77.57575757575758" y="85.33333333333333" width="7.757575757575758" height="7.757575757575758" style="fill:#0f172a;shape-rendering:crispEdges;"/>
  <rect x="85.33333333333333" y="85.33333333333333" width="7.757575757575758" height="7.757575757575758" style="fill:#0f172a;shape-rendering:crispEdges;"/>
  <rect x="93.0909090909091" y="85.33333333333333" width="7.757575757575758" height="7.757575757575758" style="fill:#0f172a;shape-rendering:crispEdges;"/>
  <rect x="131.87878787878788" y="85.33333333333333" width="7.757575757575758" height="7.757575757575758" style="fill:#0f172a;shape-rendering:crispEdges;"/>
  <rect x="139.63636363636363" y="85.33333333333333" width="7.757575757575758" height="7.757575757575758" style="fill:#0f172a;shape-rendering:crispEdges;"/>
  <rect x="147.39393939393938" y="85.33333333333333" width="7.757575757575758" height="7.757575757575758" style="fill:#0f172a;shape-rendering:crispEdges;"/>
  <rect x="170.66666666666669" y="85.33333333333333" width="7.757575757575758" height="7.757575757575758" style="fill:#0f172a;shape-rendering:crispEdges;"/>
  <rect x="178.42424242424244" y="85.33333333333333" width="7.757575757575758" height="7.757575757575758" style="fill:#0f172a;shape-rendering:crispEdges;"/>
  <rect x="193.93939393939394" y="85.33333333333333" width="7.757575757575758" height="7.757575757575758" style="fill:#0f172a;shape-rendering:crispEdges;"/>
  <rect x="201.6969696969697" y="85.33333333333333" width="7.757575757575758" height="7.757575757575758" style="fill:#0f172a;shape-rendering:crispEdges;"/>
  <rect x="217.2121212121212" y="85.33333333333333" width="7.757575757575758" height="7.757575757575758" style="fill:#0f172a;shape-rendering:crispEdges;"/>
  <rect x="224.969696969697" y="85.33333333333333" width="7.757575757575758" height="7.757575757575758" style="fill:#0f172a;shape-rendering:crispEdges;"/>
  <rect x="232.72727272727275" y="85.33333333333333" width="7.757575757575758" height="7.757575757575758" style="fill:#0f172a;shape-rendering:crispEdges;"/>
  <rect x="54.303030303030305" y="93.0909090909091" width="7.757575757575758" height="7.757575757575758" style="fill:#0f172a;shape-rendering:crispEdges;"/>
  <rect x="62.06060606060606" y="93.0909090909091" width="7.757575757575758" height="7.757575757575758" style="fill:#0f172a;shape-rendering:crispEdges;"/>
  <rect x="85.33333333333333" y="93.0909090909091" width="7.757575757575758" height="7.757575757575758" style="fill:#0f172a;shape-rendering:crispEdges;"/>
  <rect x="93.0909090909091" y="93.0909090909091" width="7.757575757575758" height="7.757575757575758" style="fill:#0f172a;shape-rendering:crispEdges;"/>
  <rect x="108.60606060606061" y="93.0909090909091" width="7.757575757575758" height="7.757575757575758" style="fill:#0f172a;shape-rendering:crispEdges;"/>
  <rect x="124.12121212121212" y="93.0909090909091" width="7.757575757575758" height="7.757575757575758" style="fill:#0f172a;shape-rendering:crispEdges;"/>
  <rect x="139.63636363636363" y="93.0909090909091" width="7.757575757575758" height="7.757575757575758" style="fill:#0f172a;shape-rendering:crispEdges;"/>
  <rect x="155.15151515151513" y="93.0909090909091" width="7.757575757575758" height="7.757575757575758" style="fill:#0f172a;shape-rendering:crispEdges;"/>
  <rect x="170.66666666666669" y="93.0909090909091" width="7.757575757575758" height="7.757575757575758" style="fill:#0f172a;shape-rendering:crispEdges;"/>
  <rect x="178.42424242424244" y="93.0909090909091" width="7.757575757575758" height="7.757575757575758" style="fill:#0f172a;shape-rendering:crispEdges;"/>
  <rect x="186.1818181818182" y="93.0909090909091" width="7.757575757575758" height="7.757575757575758" style="fill:#0f172a;shape-rendering:crispEdges;"/>
  <rect x="193.93939393939394" y="93.0909090909091" width="7.757575757575758" height="7.757575757575758" style="fill:#0f172a;shape-rendering:crispEdges;"/>
  <rect x="217.2121212121212" y="93.0909090909091" width="7.757575757575758" height="7.757575757575758" style="fill:#0f172a;shape-rendering:crispEdges;"/>
  <rect x="224.969696969697" y="93.0909090909091" width="7.757575757575758" height="7.757575757575758" style="fill:#0f172a;shape-rendering:crispEdges;"/>
  <rect x="15.515151515151516" y="100.84848484848486" width="7.757575757575758" height="7.757575757575758" style="fill:#0f172a;shape-rendering:crispEdges;"/>
  <rect x="31.03030303030303" y="100.84848484848486" width="7.757575757575758" height="7.757575757575758" style="fill:#0f172a;shape-rendering:crispEdges;"/>
  <rect x="46.54545454545455" y="100.84848484848486" width="7.757575757575758" height="7.757575757575758" style="fill:#0f172a;shape-rendering:crispEdges;"/>
  <rect x="54.303030303030305" y="100.84848484848486" width="7.757575757575758" height="7.757575757575758" style="fill:#0f172a;shape-rendering:crispEdges;"/>
  <rect x="69.81818181818181" y="100.84848484848486" width="7.757575757575758" height="7.757575757575758" style="fill:#0f172a;shape-rendering:crispEdges;"/>
  <rect x="77.57575757575758" y="100.84848484848486" width="7.757575757575758" height="7.757575757575758" style="fill:#0f172a;shape-rendering:crispEdges;"/>
  <rect x="116.36363636363636" y="100.84848484848486" width="7.757575757575758" height="7.757575757575758" style="fill:#0f172a;shape-rendering:crispEdges;"/>
  <rect x="147.39393939393938" y="100.84848484848486" width="7.757575757575758" height="7.757575757575758" style="fill:#0f172a;shape-rendering:crispEdges;"/>
  <rect x="170.66666666666669" y="100.84848484848486" width="7.757575757575758" height="7.757575757575758" style="fill:#0f172a;shape-rendering:crispEdges;"/>
  <rect x="186.1818181818182" y="100.84848484848486" width="7.757575757575758" height="7.757575757575758" style="fill:#0f172a;shape-rendering:crispEdges;"/>
  <rect x="201.6969696969697" y="100.84848484848486" width="7.757575757575758" height="7.757575757575758" style="fill:#0f172a;shape-rendering:crispEdges;"/>
  <rect x="217.2121212121212" y="100.84848484848486" width="7.757575757575758" height="7.757575757575758" style="fill:#0f172a;shape-rendering:crispEdges;"/>
  <rect x="224.969696969697" y="100.84848484848486" width="7.757575757575758" height="7.757575757575758" style="fill:#0f172a;shape-rendering:crispEdges;"/>
  <rect x="232.72727272727275" y="100.84848484848486" width="7.757575757575758" height="7.757575757575758" style="fill:#0f172a;shape-rendering:crispEdges;"/>
  <rect x="15.515151515151516" y="108.60606060606061" width="7.757575757575758" height="7.757575757575758" style="fill:#0f172a;shape-rendering:crispEdges;"/>
  <rect x="31.03030303030303" y="108.60606060606061" width="7.757575757575758" height="7.757575757575758" style="fill:#0f172a;shape-rendering:crispEdges;"/>
  <rect x="38.78787878787879" y="108.60606060606061" width="7.757575757575758" height="7.757575757575758" style="fill:#0f172a;shape-rendering:crispEdges;"/>
  <rect x="54.303030303030305" y="108.60606060606061" width="7.757575757575758" height="7.757575757575758" style="fill:#0f172a;shape-rendering:crispEdges;"/>
  <rect x="62.06060606060606" y="108.60606060606061" width="7.757575757575758" height="7.757575757575758" style="fill:#0f172a;shape-rendering:crispEdges;"/>
  <rect x="77.57575757575758" y="108.60606060606061" width="7.757575757575758" height="7.757575757575758" style="fill:#0f172a;shape-rendering:crispEdges;"/>
  <rect x="93.0909090909091" y="108.60606060606061" width="7.757575757575758" height="7.757575757575758" style="fill:#0f172a;shape-rendering:crispEdges;"/>
  <rect x="108.60606060606061" y="108.60606060606061" width="7.757575757575758" height="7.757575757575758" style="fill:#0f172a;shape-rendering:crispEdges;"/>
  <rect x="116.36363636363636" y="108.60606060606061" width="7.757575757575758" height="7.757575757575758" style="fill:#0f172a;shape-rendering:crispEdges;"/>
  <rect x="155.15151515151513" y="108.60606060606061" width="7.757575757575758" height="7.757575757575758" style="fill:#0f172a;shape-rendering:crispEdges;"/>
  <rect x="162.90909090909093" y="108.60606060606061" width="7.757575757575758" height="7.757575757575758" style="fill:#0f172a;shape-rendering:crispEdges;"/>
  <rect x="170.66666666666669" y="108.60606060606061" width="7.757575757575758" height="7.757575757575758" style="fill:#0f172a;shape-rendering:crispEdges;"/>
  <rect x="178.42424242424244" y="108.60606060606061" width="7.757575757575758" height="7.757575757575758" style="fill:#0f172a;shape-rendering:crispEdges;"/>
  <rect x="193.93939393939394" y="108.60606060606061" width="7.757575757575758" height="7.757575757575758" style="fill:#0f172a;shape-rendering:crispEdges;"/>
  <rect x="201.6969696969697" y="108.60606060606061" width="7.757575757575758" height="7.757575757575758" style="fill:#0f172a;shape-rendering:crispEdges;"/>
  <rect x="217.2121212121212" y="108.60606060606061" width="7.757575757575758" height="7.757575757575758" style="fill:#0f172a;shape-rendering:crispEdges;"/>
  <rect x="31.03030303030303" y="116.36363636363636" width="7.757575757575758" height="7.757575757575758" style="fill:#0f172a;shape-rendering:crispEdges;"/>
  <rect x="46.54545454545455" y="116.36363636363636" width="7.757575757575758" height="7.757575757575758" style="fill:#0f172a;shape-rendering:crispEdges;"/>
  <rect x="69.81818181818181" y="116.36363636363636" width="7.757575757575758" height="7.757575757575758" style="fill:#0f172a;shape-rendering:crispEdges;"/>
  <rect x="77.57575757575758" y="116.36363636363636" width="7.757575757575758" height="7.757575757575758" style="fill:#0f172a;shape-rendering:crispEdges;"/>
  <rect x="100.84848484848486" y="116.36363636363636" width="7.757575757575758" height="7.757575757575758" style="fill:#0f172a;shape-rendering:crispEdges;"/>
  <rect x="116.36363636363636" y="116.36363636363636" width="7.757575757575758" height="7.757575757575758" style="fill:#0f172a;shape-rendering:crispEdges;"/>
  <rect x="131.87878787878788" y="116.36363636363636" width="7.757575757575758" height="7.757575757575758" style="fill:#0f172a;shape-rendering:crispEdges;"/>
  <rect x="147.39393939393938" y="116.36363636363636" width="7.757575757575758" height="7.757575757575758" style="fill:#0f172a;shape-rendering:crispEdges;"/>
  <rect x="170.66666666666669" y="116.36363636363636" width="7.757575757575758" height="7.757575757575758" style="fill:#0f172a;shape-rendering:crispEdges;"/>
  <rect x="178.42424242424244" y="116.36363636363636" width="7.757575757575758" height="7.757575757575758" style="fill:#0f172a;shape-rendering:crispEdges;"/>
  <rect x="186.1818181818182" y="116.36363636363636" width="7.757575757575758" height="7.757575757575758" style="fill:#0f172a;shape-rendering:crispEdges;"/>
  <rect x="209.45454545454544" y="116.36363636363636" width="7.757575757575758" height="7.757575757575758" style="fill:#0f172a;shape-rendering:crispEdges;"/>
  <rect x="224.969696969697" y="116.36363636363636" width="7.757575757575758" height="7.757575757575758" style="fill:#0f172a;shape-rendering:crispEdges;"/>
  <rect x="232.72727272727275" y="116.36363636363636" width="7.757575757575758" height="7.757575757575758" style="fill:#0f172a;shape-rendering:crispEdges;"/>
  <rect x="23.272727272727273" y="124.12121212121212" width="7.757575757575758" height="7.757575757575758" style="fill:#0f172a;shape-rendering:crispEdges;"/>
  <rect x="31.03030303030303" y="124.12121212121212" width="7.757575757575758" height="7.757575757575758" style="fill:#0f172a;shape-rendering:crispEdges;"/>
  <rect x="54.303030303030305" y="124.12121212121212" width="7.757575757575758" height="7.757575757575758" style="fill:#0f172a;shape-rendering:crispEdges;"/>
  <rect x="62.06060606060606" y="124.12121212121212" width="7.757575757575758" height="7.757575757575758" style="fill:#0f172a;shape-rendering:crispEdges;"/>
  <rect x="69.81818181818181" y="124.12121212121212" width="7.757575757575758" height="7.757575757575758" style="fill:#0f172a;shape-rendering:crispEdges;"/>
  <rect x="77.57575757575758" y="124.12121212121212" width="7.757575757575758" height="7.757575757575758" style="fill:#0f172a;shape-rendering:crispEdges;"/>
  <rect x="93.0909090909091" y="124.12121212121212" width="7.757575757575758" height="7.757575757575758" style="fill:#0f172a;shape-rendering:crispEdges;"/>
  <rect x="100.84848484848486" y="124.12121212121212" width="7.757575757575758" height="7.757575757575758" style="fill:#0f172a;shape-rendering:crispEdges;"/>
  <rect x="124.12121212121212" y="124.12121212121212" width="7.757575757575758" height="7.757575757575758" style="fill:#0f172a;shape-rendering:crispEdges;"/>
  <rect x="178.42424242424244" y="124.12121212121212" width="7.757575757575758" height="7.757575757575758" style="fill:#0f172a;shape-rendering:crispEdges;"/>
  <rect x="201.6969696969697" y="124.12121212121212" width="7.757575757575758" height="7.757575757575758" style="fill:#0f172a;shape-rendering:crispEdges;"/>
  <rect x="209.45454545454544" y="124.12121212121212" width="7.757575757575758" height="7.757575757575758" style="fill:#0f172a;shape-rendering:crispEdges;"/>
  <rect x="217.2121212121212" y="124.12121212121212" width="7.757575757575758" height="7.757575757575758" style="fill:#0f172a;shape-rendering:crispEdges;"/>
  <rect x="15.515151515151516" y="131.87878787878788" width="7.757575757575758" height="7.757575757575758" style="fill:#0f172a;shape-rendering:crispEdges;"/>
  <rect x="23.272727272727273" y="131.87878787878788" width="7.757575757575758" height="7.757575757575758" style="fill:#0f172a;shape-rendering:crispEdges;"/>
  <rect x="31.03030303030303" y="131.87878787878788" width="7.757575757575758" height="7.757575757575758" style="fill:#0f172a;shape-rendering:crispEdges;"/>
  <rect x="85.33333333333333" y="131.87878787878788" width="7.757575757575758" height="7.757575757575758" style="fill:#0f172a;shape-rendering:crispEdges;"/>
  <rect x="93.0909090909091" y="131.87878787878788" width="7.757575757575758" height="7.757575757575758" style="fill:#0f172a;shape-rendering:crispEdges;"/>
  <rect x="100.84848484848486" y="131.87878787878788" width="7.757575757575758" height="7.757575757575758" style="fill:#0f172a;shape-rendering:crispEdges;"/>
  <rect x="131.87878787878788" y="131.87878787878788" width="7.757575757575758" height="7.757575757575758" style="fill:#0f172a;shape-rendering:crispEdges;"/>
  <rect x="162.90909090909093" y="131.87878787878788" width="7.757575757575758" height="7.757575757575758" style="fill:#0f172a;shape-rendering:crispEdges;"/>
  <rect x="170.66666666666669" y="131.87878787878788" width="7.757575757575758" height="7.757575757575758" style="fill:#0f172a;shape-rendering:crispEdges;"/>
  <rect x="178.42424242424244" y="131.87878787878788" width="7.757575757575758" height="7.757575757575758" style="fill:#0f172a;shape-rendering:crispEdges;"/>
  <rect x="201.6969696969697" y="131.87878787878788" width="7.757575757575758" height="7.757575757575758" style="fill:#0f172a;shape-rendering:crispEdges;"/>
  <rect x="209.45454545454544" y="131.87878787878788" width="7.757575757575758" height="7.757575757575758" style="fill:#0f172a;shape-rendering:crispEdges;"/>
  <rect x="224.969696969697" y="131.87878787878788" width="7.757575757575758" height="7.757575757575758" style="fill:#0f172a;shape-rendering:crispEdges;"/>
  <rect x="15.515151515151516" y="139.63636363636363" width="7.757575757575758" height="7.757575757575758" style="fill:#0f172a;shape-rendering:crispEdges;"/>
  <rect x="38.78787878787879" y="139.63636363636363" width="7.757575757575758" height="7.757575757575758" style="fill:#0f172a;shape-rendering:crispEdges;"/>
  <rect x="62.06060606060606" y="139.63636363636363" width="7.757575757575758" height="7.757575757575758" style="fill:#0f172a;shape-rendering:crispEdges;"/>
  <rect x="77.57575757575758" y="139.63636363636363" width="7.757575757575758" height="7.757575757575758" style="fill:#0f172a;shape-rendering:crispEdges;"/>
  <rect x="85.33333333333333" y="139.63636363636363" width="7.757575757575758" height="7.757575757575758" style="fill:#0f172a;shape-rendering:crispEdges;"/>
  <rect x="108.60606060606061" y="139.63636363636363" width="7.757575757575758" height="7.757575757575758" style="fill:#0f172a;shape-rendering:crispEdges;"/>
  <rect x="162.90909090909093" y="139.63636363636363" width="7.757575757575758" height="7.757575757575758" style="fill:#0f172a;shape-rendering:crispEdges;"/>
  <rect x="170.66666666666669" y="139.63636363636363" width="7.757575757575758" height="7.757575757575758" style="fill:#0f172a;shape-rendering:crispEdges;"/>
  <rect x="186.1818181818182" y="139.63636363636363" width="7.757575757575758" height="7.757575757575758" style="fill:#0f172a;shape-rendering:crispEdges;"/>
  <rect x="193.93939393939394" y="139.63636363636363" width="7.757575757575758" height="7.757575757575758" style="fill:#0f172a;shape-rendering:crispEdges;"/>
  <rect x="209.45454545454544" y="139.63636363636363" width="7.757575757575758" height="7.757575757575758" style="fill:#0f172a;shape-rendering:crispEdges;"/>
  <rect x="217.2121212121212" y="139.63636363636363" width="7.757575757575758" height="7.757575757575758" style="fill:#0f172a;shape-rendering:crispEdges;"/>
  <rect x="232.72727272727275" y="139.63636363636363" width="7.757575757575758" height="7.757575757575758" style="fill:#0f172a;shape-rendering:crispEdges;"/>
  <rect x="15.515151515151516" y="147.39393939393938" width="7.757575757575758" height="7.757575757575758" style="fill:#0f172a;shape-rendering:crispEdges;"/>
  <rect x="23.272727272727273" y="147.39393939393938" width="7.757575757575758" height="7.757575757575758" style="fill:#0f172a;shape-rendering:crispEdges;"/>
  <rect x="38.78787878787879" y="147.39393939393938" width="7.757575757575758" height="7.757575757575758" style="fill:#0f172a;shape-rendering:crispEdges;"/>
  <rect x="54.303030303030305" y="147.39393939393938" width="7.757575757575758" height="7.757575757575758" style="fill:#0f172a;shape-rendering:crispEdges;"/>
  <rect x="69.81818181818181" y="147.39393939393938" width="7.757575757575758" height="7.757575757575758" style="fill:#0f172a;shape-rendering:crispEdges;"/>
  <rect x="77.57575757575758" y="147.39393939393938" width="7.757575757575758" height="7.757575757575758" style="fill:#0f172a;shape-rendering:crispEdges;"/>
  <rect x="85.33333333333333" y="147.39393939393938" width="7.757575757575758" height="7.757575757575758" style="fill:#0f172a;shape-rendering:crispEdges;"/>
  <rect x="108.60606060606061" y="147.39393939393938" width="7.757575757575758" height="7.757575757575758" style="fill:#0f172a;shape-rendering:crispEdges;"/>
  <rect x="116.36363636363636" y="147.39393939393938" width="7.757575757575758" height="7.757575757575758" style="fill:#0f172a;shape-rendering:crispEdges;"/>
  <rect x="124.12121212121212" y="147.39393939393938" width="7.757575757575758" height="7.757575757575758" style="fill:#0f172a;shape-rendering:crispEdges;"/>
  <rect x="147.39393939393938" y="147.39393939393938" width="7.757575757575758" height="7.757575757575758" style="fill:#0f172a;shape-rendering:crispEdges;"/>
  <rect x="162.90909090909093" y="147.39393939393938" width="7.757575757575758" height="7.757575757575758" style="fill:#0f172a;shape-rendering:crispEdges;"/>
  <rect x="170.66666666666669" y="147.39393939393938" width="7.757575757575758" height="7.757575757575758" style="fill:#0f172a;shape-rendering:crispEdges;"/>
  <rect x="178.42424242424244" y="147.39393939393938" width="7.757575757575758" height="7.757575757575758" style="fill:#0f172a;shape-rendering:crispEdges;"/>
  <rect x="186.1818181818182" y="147.39393939393938" width="7.757575757575758" height="7.757575757575758" style="fill:#0f172a;shape-rendering:crispEdges;"/>
  <rect x="201.6969696969697" y="147.39393939393938" width="7.757575757575758" height="7.757575757575758" style="fill:#0f172a;shape-rendering:crispEdges;"/>
  <rect x="15.515151515151516" y="155.15151515151513" width="7.757575757575758" height="7.757575757575758" style="fill:#0f172a;shape-rendering:crispEdges;"/>
  <rect x="31.03030303030303" y="155.15151515151513" width="7.757575757575758" height="7.757575757575758" style="fill:#0f172a;shape-rendering:crispEdges;"/>
  <rect x="54.303030303030305" y="155.15151515151513" width="7.757575757575758" height="7.757575757575758" style="fill:#0f172a;shape-rendering:crispEdges;"/>
  <rect x="62.06060606060606" y="155.15151515151513" width="7.757575757575758" height="7.757575757575758" style="fill:#0f172a;shape-rendering:crispEdges;"/>
  <rect x="69.81818181818181" y="155.15151515151513" width="7.757575757575758" height="7.757575757575758" style="fill:#0f172a;shape-rendering:crispEdges;"/>
  <rect x="85.33333333333333" y="155.15151515151513" width="7.757575757575758" height="7.757575757575758" style="fill:#0f172a;shape-rendering:crispEdges;"/>
  <rect x="93.0909090909091" y="155.15151515151513" width="7.757575757575758" height="7.757575757575758" style="fill:#0f172a;shape-rendering:crispEdges;"/>
  <rect x="100.84848484848486" y="155.15151515151513" width="7.757575757575758" height="7.757575757575758" style="fill:#0f172a;shape-rendering:crispEdges;"/>
  <rect x="124.12121212121212" y="155.15151515151513" width="7.757575757575758" height="7.757575757575758" style="fill:#0f172a;shape-rendering:crispEdges;"/>
  <rect x="131.87878787878788" y="155.15151515151513" width="7.757575757575758" height="7.757575757575758" style="fill:#0f172a;shape-rendering:crispEdges;"/>
  <rect x="139.63636363636363" y="155.15151515151513" width="7.757575757575758" height="7.757575757575758" style="fill:#0f172a;shape-rendering:crispEdges;"/>
  <rect x="155.15151515151513" y="155.15151515151513" width="7.757575757575758" height="7.757575757575758" style="fill:#0f172a;shape-rendering:crispEdges;"/>
  <rect x="162.90909090909093" y="155.15151515151513" width="7.757575757575758" height="7.757575757575758" style="fill:#0f172a;shape-rendering:crispEdges;"/>
  <rect x="170.66666666666669" y="155.15151515151513" width="7.757575757575758" height="7.757575757575758" style="fill:#0f172a;shape-rendering:crispEdges;"/>
  <rect x="178.42424242424244" y="155.15151515151513" width="7.757575757575758" height="7.757575757575758" style="fill:#0f172a;shape-rendering:crispEdges;"/>
  <rect x="186.1818181818182" y="155.15151515151513" width="7.757575757575758" height="7.757575757575758" style="fill:#0f172a;shape-rendering:crispEdges;"/>
  <rect x="232.72727272727275" y="155.15151515151513" width="7.757575757575758" height="7.757575757575758" style="fill:#0f172a;shape-rendering:crispEdges;"/>
  <rect x="15.515151515151516" y="162.90909090909093" width="7.757575757575758" height="7.757575757575758" style="fill:#0f172a;shape-rendering:crispEdges;"/>
  <rect x="38.78787878787879" y="162.90909090909093" width="7.757575757575758" height="7.757575757575758" style="fill:#0f172a;shape-rendering:crispEdges;"/>
  <rect x="46.54545454545455" y="162.90909090909093" width="7.757575757575758" height="7.757575757575758" style="fill:#0f172a;shape-rendering:crispEdges;"/>
  <rect x="54.303030303030305" y="162.90909090909093" width="7.757575757575758" height="7.757575757575758" style="fill:#0f172a;shape-rendering:crispEdges;"/>
  <rect x="69.81818181818181" y="162.90909090909093" width="7.757575757575758" height="7.757575757575758" style="fill:#0f172a;shape-rendering:crispEdges;"/>
  <rect x="77.57575757575758" y="162.90909090909093" width="7.757575757575758" height="7.757575757575758" style="fill:#0f172a;shape-rendering:crispEdges;"/>
  <rect x="85.33333333333333" y="162.90909090909093" width="7.757575757575758" height="7.757575757575758" style="fill:#0f172a;shape-rendering:crispEdges;"/>
  <rect x="100.84848484848486" y="162.90909090909093" width="7.757575757575758" height="7.757575757575758" style="fill:#0f172a;shape-rendering:crispEdges;"/>
  <rect x="116.36363636363636" y="162.90909090909093" width="7.757575757575758" height="7.757575757575758" style="fill:#0f172a;shape-rendering:crispEdges;"/>
  <rect x="124.12121212121212" y="162.90909090909093" width="7.757575757575758" height="7.757575757575758" style="fill:#0f172a;shape-rendering:crispEdges;"/>
  <rect x="139.63636363636363" y="162.90909090909093" width="7.757575757575758" height="7.757575757575758" style="fill:#0f172a;shape-rendering:crispEdges;"/>
  <rect x="170.66666666666669" y="162.90909090909093" width="7.757575757575758" height="7.757575757575758" style="fill:#0f172a;shape-rendering:crispEdges;"/>
  <rect x="178.42424242424244" y="162.90909090909093" width="7.757575757575758" height="7.757575757575758" style="fill:#0f172a;shape-rendering:crispEdges;"/>
  <rect x="186.1818181818182" y="162.90909090909093" width="7.757575757575758" height="7.757575757575758" style="fill:#0f172a;shape-rendering:crispEdges;"/>
  <rect x="209.45454545454544" y="162.90909090909093" width="7.757575757575758" height="7.757575757575758" style="fill:#0f172a;shape-rendering:crispEdges;"/>
  <rect x="217.2121212121212" y="162.90909090909093" width="7.757575757575758" height="7.757575757575758" style="fill:#0f172a;shape-rendering:crispEdges;"/>
  <rect x="232.72727272727275" y="162.90909090909093" width="7.757575757575758" height="7.757575757575758" style="fill:#0f172a;shape-rendering:crispEdges;"/>
  <rect x="15.515151515151516" y="170.66666666666669" width="7.757575757575758" height="7.757575757575758" style="fill:#0f172a;shape-rendering:crispEdges;"/>
  <rect x="23.272727272727273" y="170.66666666666669" width="7.757575757575758" height="7.757575757575758" style="fill:#0f172a;shape-rendering:crispEdges;"/>
  <rect x="31.03030303030303" y="170.66666666666669" width="7.757575757575758" height="7.757575757575758" style="fill:#0f172a;shape-rendering:crispEdges;"/>
  <rect x="46.54545454545455" y="170.66666666666669" width="7.757575757575758" height="7.757575757575758" style="fill:#0f172a;shape-rendering:crispEdges;"/>
  <rect x="62.06060606060606" y="170.66666666666669" width="7.757575757575758" height="7.757575757575758" style="fill:#0f172a;shape-rendering:crispEdges;"/>
  <rect x="69.81818181818181" y="170.66666666666669" width="7.757575757575758" height="7.757575757575758" style="fill:#0f172a;shape-rendering:crispEdges;"/>
  <rect x="85.33333333333333" y="170.66666666666669" width="7.757575757575758" height="7.757575757575758" style="fill:#0f172a;shape-rendering:crispEdges;"/>
  <rect x="100.84848484848486" y="170.66666666666669" width="7.757575757575758" height="7.757575757575758" style="fill:#0f172a;shape-rendering:crispEdges;"/>
  <rect x="108.60606060606061" y="170.66666666666669" width="7.757575757575758" height="7.757575757575758" style="fill:#0f172a;shape-rendering:crispEdges;"/>
  <rect x="139.63636363636363" y="170.66666666666669" width="7.757575757575758" height="7.757575757575758" style="fill:#0f172a;shape-rendering:crispEdges;"/>
  <rect x="147.39393939393938" y="170.66666666666669" width="7.757575757575758" height="7.757575757575758" style="fill:#0f172a;shape-rendering:crispEdges;"/>
  <rect x="170.66666666666669" y="170.66666666666669" width="7.757575757575758" height="7.757575757575758" style="fill:#0f172a;shape-rendering:crispEdges;"/>
  <rect x="178.42424242424244" y="170.66666666666669" width="7.757575757575758" height="7.757575757575758" style="fill:#0f172a;shape-rendering:crispEdges;"/>
  <rect x="186.1818181818182" y="170.66666666666669" width="7.757575757575758" height="7.757575757575758" style="fill:#0f172a;shape-rendering:crispEdges;"/>
  <rect x="193.93939393939394" y="170.66666666666669" width="7.757575757575758" height="7.757575757575758" style="fill:#0f172a;shape-rendering:crispEdges;"/>
  <rect x="201.6969696969697" y="170.66666666666669" width="7.757575757575758" height="7.757575757575758" style="fill:#0f172a;shape-rendering:crispEdges;"/>
  <rect x="209.45454545454544" y="170.66666666666669" width="7.757575757575758" height="7.757575757575758" style="fill:#0f172a;shape-rendering:crispEdges;"/>
  <rect x="217.2121212121212" y="170.66666666666669" width="7.757575757575758" height="7.757575757575758" style="fill:#0f172a;shape-rendering:crispEdges;"/>
  <rect x="224.969696969697" y="170.66666666666669" width="7.757575757575758" height="7.757575757575758" style="fill:#0f172a;shape-rendering:crispEdges;"/>
  <rect x="232.72727272727275" y="170.66666666666669" width="7.757575757575758" height="7.757575757575758" style="fill:#0f172a;shape-rendering:crispEdges;"/>
  <rect x="85.33333333333333" y="178.42424242424244" width="7.757575757575758" height="7.757575757575758" style="fill:#0f172a;shape-rendering:crispEdges;"/>
  <rect x="93.0909090909091" y="178.42424242424244" width="7.757575757575758" height="7.757575757575758" style="fill:#0f172a;shape-rendering:crispEdges;"/>
  <rect x="100.84848484848486" y="178.42424242424244" width="7.757575757575758" height="7.757575757575758" style="fill:#0f172a;shape-rendering:crispEdges;"/>
  <rect x="124.12121212121212" y="178.42424242424244" width="7.757575757575758" height="7.757575757575758" style="fill:#0f172a;shape-rendering:crispEdges;"/>
  <rect x="170.66666666666669" y="178.42424242424244" width="7.757575757575758" height="7.757575757575758" style="fill:#0f172a;shape-rendering:crispEdges;"/>
  <rect x="201.6969696969697" y="178.42424242424244" width="7.757575757575758" height="7.757575757575758" style="fill:#0f172a;shape-rendering:crispEdges;"/>
  <rect x="209.45454545454544" y="178.42424242424244" width="7.757575757575758" height="7.757575757575758" style="fill:#0f172a;shape-rendering:crispEdges;"/>
  <rect x="232.72727272727275" y="178.42424242424244" width="7.757575757575758" height="7.757575757575758" style="fill:#0f172a;shape-rendering:crispEdges;"/>
  <rect x="15.515151515151516" y="186.1818181818182" width="7.757575757575758" height="7.757575757575758" style="fill:#0f172a;shape-rendering:crispEdges;"/>
  <rect x="23.272727272727273" y="186.1818181818182" width="7.757575757575758" height="7.757575757575758" style="fill:#0f172a;shape-rendering:crispEdges;"/>
  <rect x="31.03030303030303" y="186.1818181818182" width="7.757575757575758" height="7.757575757575758" style="fill:#0f172a;shape-rendering:crispEdges;"/>
  <rect x="38.78787878787879" y="186.1818181818182" width="7.757575757575758" height="7.757575757575758" style="fill:#0f172a;shape-rendering:crispEdges;"/>
  <rect x="46.54545454545455" y="186.1818181818182" width="7.757575757575758" height="7.757575757575758" style="fill:#0f172a;shape-rendering:crispEdges;"/>
  <rect x="54.303030303030305" y="186.1818181818182" width="7.757575757575758" height="7.757575757575758" style="fill:#0f172a;shape-rendering:crispEdges;"/>
  <rect x="62.06060606060606" y="186.1818181818182" width="7.757575757575758" height="7.757575757575758" style="fill:#0f172a;shape-rendering:crispEdges;"/>
  <rect x="77.57575757575758" y="186.1818181818182" width="7.757575757575758" height="7.757575757575758" style="fill:#0f172a;shape-rendering:crispEdges;"/>
  <rect x="85.33333333333333" y="186.1818181818182" width="7.757575757575758" height="7.757575757575758" style="fill:#0f172a;shape-rendering:crispEdges;"/>
  <rect x="93.0909090909091" y="186.1818181818182" width="7.757575757575758" height="7.757575757575758" style="fill:#0f172a;shape-rendering:crispEdges;"/>
  <rect x="100.84848484848486" y="186.1818181818182" width="7.757575757575758" height="7.757575757575758" style="fill:#0f172a;shape-rendering:crispEdges;"/>
  <rect x="116.36363636363636" y="186.1818181818182" width="7.757575757575758" height="7.757575757575758" style="fill:#0f172a;shape-rendering:crispEdges;"/>
  <rect x="131.87878787878788" y="186.1818181818182" width="7.757575757575758" height="7.757575757575758" style="fill:#0f172a;shape-rendering:crispEdges;"/>
  <rect x="155.15151515151513" y="186.1818181818182" width="7.757575757575758" height="7.757575757575758" style="fill:#0f172a;shape-rendering:crispEdges;"/>
  <rect x="162.90909090909093" y="186.1818181818182" width="7.757575757575758" height="7.757575757575758" style="fill:#0f172a;shape-rendering:crispEdges;"/>
  <rect x="170.66666666666669" y="186.1818181818182" width="7.757575757575758" height="7.757575757575758" style="fill:#0f172a;shape-rendering:crispEdges;"/>
  <rect x="186.1818181818182" y="186.1818181818182" width="7.757575757575758" height="7.757575757575758" style="fill:#0f172a;shape-rendering:crispEdges;"/>
  <rect x="201.6969696969697" y="186.1818181818182" width="7.757575757575758" height="7.757575757575758" style="fill:#0f172a;shape-rendering:crispEdges;"/>
  <rect x="232.72727272727275" y="186.1818181818182" width="7.757575757575758" height="7.757575757575758" style="fill:#0f172a;shape-rendering:crispEdges;"/>
  <rect x="15.515151515151516" y="193.93939393939394" width="7.757575757575758" height="7.757575757575758" style="fill:#0f172a;shape-rendering:crispEdges;"/>
  <rect x="62.06060606060606" y="193.93939393939394" width="7.757575757575758" height="7.757575757575758" style="fill:#0f172a;shape-rendering:crispEdges;"/>
  <rect x="85.33333333333333" y="193.93939393939394" width="7.757575757575758" height="7.757575757575758" style="fill:#0f172a;shape-rendering:crispEdges;"/>
  <rect x="139.63636363636363" y="193.93939393939394" width="7.757575757575758" height="7.757575757575758" style="fill:#0f172a;shape-rendering:crispEdges;"/>
  <rect x="147.39393939393938" y="193.93939393939394" width="7.757575757575758" height="7.757575757575758" style="fill:#0f172a;shape-rendering:crispEdges;"/>
  <rect x="162.90909090909093" y="193.93939393939394" width="7.757575757575758" height="7.757575757575758" style="fill:#0f172a;shape-rendering:crispEdges;"/>
  <rect x="170.66666666666669" y="193.93939393939394" width="7.757575757575758" height="7.757575757575758" style="fill:#0f172a;shape-rendering:crispEdges;"/>
  <rect x="201.6969696969697" y="193.93939393939394" width="7.757575757575758" height="7.757575757575758" style="fill:#0f172a;shape-rendering:crispEdges;"/>
  <rect x="224.969696969697" y="193.93939393939394" width="7.757575757575758" height="7.757575757575758" style="fill:#0f172a;shape-rendering:crispEdges;"/>
  <rect x="15.515151515151516" y="201.6969696969697" width="7.757575757575758" height="7.757575757575758" style="fill:#0f172a;shape-rendering:crispEdges;"/>
  <rect x="31.03030303030303" y="201.6969696969697" width="7.757575757575758" height="7.757575757575758" style="fill:#0f172a;shape-rendering:crispEdges;"/>
  <rect x="38.78787878787879" y="201.6969696969697" width="7.757575757575758" height="7.757575757575758" style="fill:#0f172a;shape-rendering:crispEdges;"/>
  <rect x="46.54545454545455" y="201.6969696969697" width="7.757575757575758" height="7.757575757575758" style="fill:#0f172a;shape-rendering:crispEdges;"/>
  <rect x="62.06060606060606" y="201.6969696969697" width="7.757575757575758" height="7.757575757575758" style="fill:#0f172a;shape-rendering:crispEdges;"/>
  <rect x="85.33333333333333" y="201.6969696969697" width="7.757575757575758" height="7.757575757575758" style="fill:#0f172a;shape-rendering:crispEdges;"/>
  <rect x="100.84848484848486" y="201.6969696969697" width="7.757575757575758" height="7.757575757575758" style="fill:#0f172a;shape-rendering:crispEdges;"/>
  <rect x="124.12121212121212" y="201.6969696969697" width="7.757575757575758" height="7.757575757575758" style="fill:#0f172a;shape-rendering:crispEdges;"/>
  <rect x="139.63636363636363" y="201.6969696969697" width="7.757575757575758" height="7.757575757575758" style="fill:#0f172a;shape-rendering:crispEdges;"/>
  <rect x="155.15151515151513" y="201.6969696969697" width="7.757575757575758" height="7.757575757575758" style="fill:#0f172a;shape-rendering:crispEdges;"/>
  <rect x="170.66666666666669" y="201.6969696969697" width="7.757575757575758" height="7.757575757575758" style="fill:#0f172a;shape-rendering:crispEdges;"/>
  <rect x="178.42424242424244" y="201.6969696969697" width="7.757575757575758" height="7.757575757575758" style="fill:#0f172a;shape-rendering:crispEdges;"/>
  <rect x="186.1818181818182" y="201.6969696969697" width="7.757575757575758" height="7.757575757575758" style="fill:#0f172a;shape-rendering:crispEdges;"/>
  <rect x="193.93939393939394" y="201.6969696969697" width="7.757575757575758" height="7.757575757575758" style="fill:#0f172a;shape-rendering:crispEdges;"/>
  <rect x="201.6969696969697" y="201.6969696969697" width="7.757575757575758" height="7.757575757575758" style="fill:#0f172a;shape-rendering:crispEdges;"/>
  <rect x="209.45454545454544" y="201.6969696969697" width="7.757575757575758" height="7.757575757575758" style="fill:#0f172a;shape-rendering:crispEdges;"/>
  <rect x="224.969696969697" y="201.6969696969697" width="7.757575757575758" height="7.757575757575758" style="fill:#0f172a;shape-rendering:crispEdges;"/>
  <rect x="232.72727272727275" y="201.6969696969697" width="7.757575757575758" height="7.757575757575758" style="fill:#0f172a;shape-rendering:crispEdges;"/>
  <rect x="15.515151515151516" y="209.45454545454544" width="7.757575757575758" height="7.757575757575758" style="fill:#0f172a;shape-rendering:crispEdges;"/>
  <rect x="31.03030303030303" y="209.45454545454544" width="7.757575757575758" height="7.757575757575758" style="fill:#0f172a;shape-rendering:crispEdges;"/>
  <rect x="38.78787878787879" y="209.45454545454544" width="7.757575757575758" height="7.757575757575758" style="fill:#0f172a;shape-rendering:crispEdges;"/>
  <rect x="46.54545454545455" y="209.45454545454544" width="7.757575757575758" height="7.757575757575758" style="fill:#0f172a;shape-rendering:crispEdges;"/>
  <rect x="62.06060606060606" y="209.45454545454544" width="7.757575757575758" height="7.757575757575758" style="fill:#0f172a;shape-rendering:crispEdges;"/>
  <rect x="77.57575757575758" y="209.45454545454544" width="7.757575757575758" height="7.757575757575758" style="fill:#0f172a;shape-rendering:crispEdges;"/>
  <rect x="108.60606060606061" y="209.45454545454544" width="7.757575757575758" height="7.757575757575758" style="fill:#0f172a;shape-rendering:crispEdges;"/>
  <rect x="139.63636363636363" y="209.45454545454544" width="7.757575757575758" height="7.757575757575758" style="fill:#0f172a;shape-rendering:crispEdges;"/>
  <rect x="147.39393939393938" y="209.45454545454544" width="7.757575757575758" height="7.757575757575758" style="fill:#0f172a;shape-rendering:crispEdges;"/>
  <rect x="170.66666666666669" y="209.45454545454544" width="7.757575757575758" height="7.757575757575758" style="fill:#0f172a;shape-rendering:crispEdges;"/>
  <rect x="178.42424242424244" y="209.45454545454544" width="7.757575757575758" height="7.757575757575758" style="fill:#0f172a;shape-rendering:crispEdges;"/>
  <rect x="186.1818181818182" y="209.45454545454544" width="7.757575757575758" height="7.757575757575758" style="fill:#0f172a;shape-rendering:crispEdges;"/>
  <rect x="193.93939393939394" y="209.45454545454544" width="7.757575757575758" height="7.757575757575758" style="fill:#0f172a;shape-rendering:crispEdges;"/>
  <rect x="209.45454545454544" y="209.45454545454544" width="7.757575757575758" height="7.757575757575758" style="fill:#0f172a;shape-rendering:crispEdges;"/>
  <rect x="224.969696969697" y="209.45454545454544" width="7.757575757575758" height="7.757575757575758" style="fill:#0f172a;shape-rendering:crispEdges;"/>
  <rect x="15.515151515151516" y="217.2121212121212" width="7.757575757575758" height="7.757575757575758" style="fill:#0f172a;shape-rendering:crispEdges;"/>
  <rect x="31.03030303030303" y="217.2121212121212" width="7.757575757575758" height="7.757575757575758" style="fill:#0f172a;shape-rendering:crispEdges;"/>
  <rect x="38.78787878787879" y="217.2121212121212" width="7.757575757575758" height="7.757575757575758" style="fill:#0f172a;shape-rendering:crispEdges;"/>
  <rect x="46.54545454545455" y="217.2121212121212" width="7.757575757575758" height="7.757575757575758" style="fill:#0f172a;shape-rendering:crispEdges;"/>
  <rect x="62.06060606060606" y="217.2121212121212" width="7.757575757575758" height="7.757575757575758" style="fill:#0f172a;shape-rendering:crispEdges;"/>
  <rect x="93.0909090909091" y="217.2121212121212" width="7.757575757575758" height="7.757575757575758" style="fill:#0f172a;shape-rendering:crispEdges;"/>
  <rect x="108.60606060606061" y="217.2121212121212" width="7.757575757575758" height="7.757575757575758" style="fill:#0f172a;shape-rendering:crispEdges;"/>
  <rect x="116.36363636363636" y="217.2121212121212" width="7.757575757575758" height="7.757575757575758" style="fill:#0f172a;shape-rendering:crispEdges;"/>
  <rect x="124.12121212121212" y="217.2121212121212" width="7.757575757575758" height="7.757575757575758" style="fill:#0f172a;shape-rendering:crispEdges;"/>
  <rect x="147.39393939393938" y="217.2121212121212" width="7.757575757575758" height="7.757575757575758" style="fill:#0f172a;shape-rendering:crispEdges;"/>
  <rect x="155.15151515151513" y="217.2121212121212" width="7.757575757575758" height="7.757575757575758" style="fill:#0f172a;shape-rendering:crispEdges;"/>
  <rect x="162.90909090909093" y="217.2121212121212" width="7.757575757575758" height="7.757575757575758" style="fill:#0f172a;shape-rendering:crispEdges;"/>
  <rect x="170.66666666666669" y="217.2121212121212" width="7.757575757575758" height="7.757575757575758" style="fill:#0f172a;shape-rendering:crispEdges;"/>
  <rect x="178.42424242424244" y="217.2121212121212" width="7.757575757575758" height="7.757575757575758" style="fill:#0f172a;shape-rendering:crispEdges;"/>
  <rect x="201.6969696969697" y="217.2121212121212" width="7.757575757575758" height="7.757575757575758" style="fill:#0f172a;shape-rendering:crispEdges;"/>
  <rect x="217.2121212121212" y="217.2121212121212" width="7.757575757575758" height="7.757575757575758" style="fill:#0f172a;shape-rendering:crispEdges;"/>
  <rect x="15.515151515151516" y="224.969696969697" width="7.757575757575758" height="7.757575757575758" style="fill:#0f172a;shape-rendering:crispEdges;"/>
  <rect x="62.06060606060606" y="224.969696969697" width="7.757575757575758" height="7.757575757575758" style="fill:#0f172a;shape-rendering:crispEdges;"/>
  <rect x="77.57575757575758" y="224.969696969697" width="7.757575757575758" height="7.757575757575758" style="fill:#0f172a;shape-rendering:crispEdges;"/>
  <rect x="93.0909090909091" y="224.969696969697" width="7.757575757575758" height="7.757575757575758" style="fill:#0f172a;shape-rendering:crispEdges;"/>
  <rect x="116.36363636363636" y="224.969696969697" width="7.757575757575758" height="7.757575757575758" style="fill:#0f172a;shape-rendering:crispEdges;"/>
  <rect x="124.12121212121212" y="224.969696969697" width="7.757575757575758" height="7.757575757575758" style="fill:#0f172a;shape-rendering:crispEdges;"/>
  <rect x="131.87878787878788" y="224.969696969697" width="7.757575757575758" height="7.757575757575758" style="fill:#0f172a;shape-rendering:crispEdges;"/>
  <rect x="139.63636363636363" y="224.969696969697" width="7.757575757575758" height="7.757575757575758" style="fill:#0f172a;shape-rendering:crispEdges;"/>
  <rect x="147.39393939393938" y="224.969696969697" width="7.757575757575758" height="7.757575757575758" style="fill:#0f172a;shape-rendering:crispEdges;"/>
  <rect x="178.42424242424244" y="224.969696969697" width="7.757575757575758" height="7.757575757575758" style="fill:#0f172a;shape-rendering:crispEdges;"/>
  <rect x="186.1818181818182" y="224.969696969697" width="7.757575757575758" height="7.757575757575758" style="fill:#0f172a;shape-rendering:crispEdges;"/>
  <rect x="193.93939393939394" y="224.969696969697" width="7.757575757575758" height="7.757575757575758" style="fill:#0f172a;shape-rendering:crispEdges;"/>
  <rect x="209.45454545454544" y="224.969696969697" width="7.757575757575758" height="7.757575757575758" style="fill:#0f172a;shape-rendering:crispEdges;"/>
  <rect x="224.969696969697" y="224.969696969697" width="7.757575757575758" height="7.757575757575758" style="fill:#0f172a;shape-rendering:crispEdges;"/>
  <rect x="232.72727272727275" y="224.969696969697" width="7.757575757575758" height="7.757575757575758" style="fill:#0f172a;shape-rendering:crispEdges;"/>
  <rect x="15.515151515151516" y="232.72727272727275" width="7.757575757575758" height="7.757575757575758" style="fill:#0f172a;shape-rendering:crispEdges;"/>
  <rect x="23.272727272727273" y="232.72727272727275" width="7.757575757575758" height="7.757575757575758" style="fill:#0f172a;shape-rendering:crispEdges;"/>
  <rect x="31.03030303030303" y="232.72727272727275" width="7.757575757575758" height="7.757575757575758" style="fill:#0f172a;shape-rendering:crispEdges;"/>
  <rect x="38.78787878787879" y="232.72727272727275" width="7.757575757575758" height="7.757575757575758" style="fill:#0f172a;shape-rendering:crispEdges;"/>
  <rect x="46.54545454545455" y="232.72727272727275" width="7.757575757575758" height="7.757575757575758" style="fill:#0f172a;shape-rendering:crispEdges;"/>
  <rect x="54.303030303030305" y="232.72727272727275" width="7.757575757575758" height="7.757575757575758" style="fill:#0f172a;shape-rendering:crispEdges;"/>
  <rect x="62.06060606060606" y="232.72727272727275" width="7.757575757575758" height="7.757575757575758" style="fill:#0f172a;shape-rendering:crispEdges;"/>
  <rect x="77.57575757575758" y="232.72727272727275" width="7.757575757575758" height="7.757575757575758" style="fill:#0f172a;shape-rendering:crispEdges;"/>
  <rect x="85.33333333333333" y="232.72727272727275" width="7.757575757575758" height="7.757575757575758" style="fill:#0f172a;shape-rendering:crispEdges;"/>
  <rect x="100.84848484848486" y="232.72727272727275" width="7.757575757575758" height="7.757575757575758" style="fill:#0f172a;shape-rendering:crispEdges;"/>
  <rect x="116.36363636363636" y="232.72727272727275" width="7.757575757575758" height="7.757575757575758" style="fill:#0f172a;shape-rendering:crispEdges;"/>
  <rect x="124.12121212121212" y="232.72727272727275" width="7.757575757575758" height="7.757575757575758" style="fill:#0f172a;shape-rendering:crispEdges;"/>
  <rect x="178.42424242424244" y="232.72727272727275" width="7.757575757575758" height="7.757575757575758" style="fill:#0f172a;shape-rendering:crispEdges;"/>
  <rect x="201.6969696969697" y="232.72727272727275" width="7.757575757575758" height="7.757575757575758" style="fill:#0f172a;shape-rendering:crispEdges;"/>
  <rect x="217.2121212121212" y="232.72727272727275" width="7.757575757575758" height="7.757575757575758" style="fill:#0f172a;shape-rendering:crispEdges;"/>
</svg>
